# xmcd
#
# Track frame offsets:
#	150
#	11940
#	22588
#	33835
#	44712
#	56107
#	66325
#	76523
#	91403
#	106196
#	118314
#	131071
#	140836
#	152905
#	164048
#	175511
#	186574
#	198253
#
# Disc length: 2755
#
# Revision: 2
# Processed by: cddbd v1.5.1PL0 Copyright (c) Steve Scherf et al.
# Submitted via: dBpowerAMP V4.0
# Normalized: r0:DSETVAR1,TDELIM( - ),TSWAP
#
DISCID=fe0ac112
DTITLE=Various Artist - Country Greats Volume 2
DYEAR=1900
DGENRE=Country
TTITLE0=Willie Nelson - Is There Something On Your Mind
TTITLE1=Billie Jo Spears - I'm So Lonesome I Could Cry
TTITLE2=Frankie Lane - Answer Me
TTITLE3=Patsy Cline - I Don't Wanna
TTITLE4=Lynn Anderson - Listen to a Country Song
TTITLE5=Slim Whitman - Anytime You're Feeling Lonely
TTITLE6=Billie Jo Spears - It Makes No Difference Now
TTITLE7=Kenny Rogers - For The Good Times
TTITLE8=Tex Ritter - I Dreamed of a Hillbilly Heaven
TTITLE9=Willie Nelson - Happiness Lives Next Door
TTITLE10=Charlie Pride - Crystal Chandeliers
TTITLE11=Mickey Gilley - Fraulin
TTITLE12=Waylon Jennings - Don't Think Twice
TTITLE13=Frankie Lane - Love is a Golden Ring
TTITLE14=Barbara Fairchild - Cheatin Is
TTITLE15=Lynn Anderson - Heaven's Just a Sin Away
TTITLE16=Patsy Cline - Walking After Midnight
TTITLE17=Anne Murray - Paths of Victory
EXTD=
EXTT0=
EXTT1=
EXTT2=
EXTT3=
EXTT4=
EXTT5=
EXTT6=
EXTT7=
EXTT8=
EXTT9=
EXTT10=
EXTT11=
EXTT12=
EXTT13=
EXTT14=
EXTT15=
EXTT16=
EXTT17=
PLAYORDER=
